<svg xmlns="http://www.w3.org/2000/svg" viewBox="0 0 100 100" width="30" height="30">
  <path fill="#000000" d="M29.5 8.5c8.9-.4 16.4 2.6 22.5 9 1 3-0 5-3 6-8.7-7.8-18.2-9-28.5-3.5-7 6.6-8.8 14.4-5.5 23.5 5.2-2.4 10.5-4.4 16-6 4.5 1.3 8.8 3 13 5 6-9.6 12.2-19.1 18.5-28.5 2.3-.7 4.7-.7 7 0 3.7 5.4 7 11 10 17-1 3-3 4-6 3-1.3-1.4-2.5-2.9-3.5-4.5-.3 11.3-.7 22.7-1 34-2.8 2.9-5.2 2.5-7-1-.3-11-.7-22-1-33-3.2 5.2-6.3 10.3-9.5 15.5 2.6.9 4.8 2.4 6.5 4.5.3 6.7.7 13.3 1 20 2.5 2.2 5.3 3 8.5 2.5 7.3-3.7 14.7-7.3 22-11-3.6-5.4-7.1-10.9-10.5-16.5-.7-5 1.3-6.7 6-5 4.4 7.2 8.6 14.5 12.5 22-.2 1.4-.7 2.8-1.5 4-9.1 5.5-18.6 10.3-28.5 14.5-3.2.5-6-.3-8.5-2.5-.8 2.1-2 3.9-3.5 5.5-8.1 4.4-16.4 8.2-25 11.5-3.4-1.2-6.8-2.7-10-4.5-2.9-3.2-2.4-5.7 1.5-7.5 1.4.8 2.9 1.4 4.5 2 1.2-7.3 1.3-14.6.5-22-4.1-1.8-8.3-3.7-12.5-5.5-.8-2-.1-3.8 0-5.5-.7.3-1.3.7-2 1-.1 8 .7 16 1.5 24 3.2 1.3 4.2 3.7 3 7-4.1 1.6-7.4.6-10-3-.7-10.7-.7-21.3 0-32 1.3-1.1 2.5-2.2 3.5-3.5-4.5-19.4 2.8-31.6 22-36.5zm-1 37c5.2.8 10.2 2.3 15 4.5-4.6 3.1-9.6 4.8-15 5-3.5-1.2-6.8-2.7-10-4.5 3.4-1.7 6.7-3.4 10-5zm22 10c1.2 6.8 1.3 13.8.5 21-5.1 2.8-10.3 5.5-15.5 8-1.2-7.3-1.3-14.6-.5-22 5.2-2.4 10.4-4.8 15.5-7z"/>
</svg>